<?xml version="1.0" standalone="no"?><!DOCTYPE svg PUBLIC "-//W3C//DTD SVG 1.1//EN" "http://www.w3.org/Graphics/SVG/1.1/DTD/svg11.dtd"><svg t="1622182511520" class="icon" viewBox="0 0 1024 1024" version="1.1" xmlns="http://www.w3.org/2000/svg" p-id="11038" xmlns:xlink="http://www.w3.org/1999/xlink" width="200" height="200"><defs><style type="text/css"></style></defs><path d="M128.568889 750.364444V204.8c16.497778-36.977778 44.942222-48.355556 84.195555-48.355556 199.68 1.137778 399.928889 0.568889 599.608889 0.568889 61.44 0 83.626667 21.617778 83.626667 82.488889v473.884445c0 60.871111-22.186667 83.626667-82.488889 83.626666-76.8 0-154.168889-1.137778-230.968889 0.568889-23.324444 0.568889-48.924444 3.982222-69.404444 14.222222-71.111111 35.84-140.515556 75.093333-210.488889 112.64H278.755556c-31.857778-21.617778-21.048889-55.182222-22.186667-84.764444-2.275556-34.702222-9.102222-43.235556-43.235556-42.097778-38.684444 1.137778-67.697778-11.377778-84.764444-47.217778z m381.155555-352.711111c50.062222 0 100.124444-0.568889 149.617778 0 22.755556 0 40.96-6.257778 40.391111-32.426666 0-24.462222-17.635556-30.72-39.253333-30.72H357.831111c-21.048889 0-38.684444 6.257778-39.253333 30.72 0.568889 27.306667 18.204444 32.995556 40.96 32.426666h150.186666z m-39.822222 191.715556h113.777778c20.48 0 35.84-7.964444 36.408889-30.151111 0.568889-24.462222-15.36-32.426667-36.977778-32.426667h-227.555555c-20.48 0-35.84 7.395556-36.408889 30.151111-0.568889 24.462222 14.791111 32.995556 36.977777 32.426667h113.777778z" p-id="11039" ></path></svg>