<?xml version="1.0" standalone="no"?><!DOCTYPE svg PUBLIC "-//W3C//DTD SVG 1.1//EN" "http://www.w3.org/Graphics/SVG/1.1/DTD/svg11.dtd"><svg t="1622182357989" class="icon" viewBox="0 0 1024 1024" version="1.1" xmlns="http://www.w3.org/2000/svg" p-id="2548" xmlns:xlink="http://www.w3.org/1999/xlink" width="200" height="200"><defs><style type="text/css"></style></defs><path d="M511.3 362.5c-48.8 0-88.5 39.7-88.5 88.5s39.7 88.5 88.5 88.5 88.5-39.7 88.5-88.5c0.1-48.8-39.7-88.5-88.5-88.5z" fill="#66c4f9" p-id="2549"></path><path d="M791.2 1h-555C159.9 1 97.8 63.1 97.8 139.4v745.2c0 76.3 62.1 138.4 138.4 138.4h555c76.3 0 138.4-62.1 138.4-138.4V139.4C929.5 63.1 867.5 1 791.2 1zM914 232.8L796.2 350.7c-35.4 35.4-76.1 63.4-121.2 83.5 0.6 5.5 0.9 11.2 0.9 16.9 0 90.7-73.8 164.5-164.5 164.5s-164.5-73.8-164.5-164.5c0-5.9 0.3-11.7 0.9-17.4-44.6-20-84.9-47.9-119.9-82.8L110 232.9c-14.8-14.8-14.8-38.9 0-53.7 14.8-14.8 38.9-14.8 53.7 0L281.5 297c27 26.9 57.7 48.6 91.7 64.7 29.4-45.2 80.3-75.2 138.1-75.2 58 0 109.1 30.2 138.4 75.6 34.4-16.1 65.5-37.9 92.7-65.2L860.2 179c14.8-14.8 38.9-14.8 53.7 0s15 39 0.1 53.8z"  p-id="2550"></path></svg>