<?xml version="1.0" standalone="no"?><!DOCTYPE svg PUBLIC "-//W3C//DTD SVG 1.1//EN" "http://www.w3.org/Graphics/SVG/1.1/DTD/svg11.dtd"><svg t="1626501396046" class="icon" viewBox="0 0 1024 1024" version="1.1" xmlns="http://www.w3.org/2000/svg" p-id="1957" xmlns:xlink="http://www.w3.org/1999/xlink" width="200" height="200"><defs><style type="text/css"></style></defs><path d="M850.24 225.365333a259.498667 259.498667 0 0 1 64 261.696 32 32 0 1 1-61.013333-19.221333 195.562667 195.562667 0 0 0-324.778667-197.226667 32 32 0 0 1-45.269333 0 195.562667 195.562667 0 0 0-276.565334 0c-72.32 72.32-76.394667 187.733333-11.349333 264.256l4.053333 4.629334 7.296 7.68L437.909333 778.453333a95.978667 95.978667 0 0 0 119.786667 12.864 32 32 0 0 1 34.709333 53.76 159.957333 159.957333 0 0 1-195.349333-17.130666l-4.394667-4.245334L160.810667 591.850667l-8.362667-8.789334c-92.693333-102.272-89.045333-259.754667 8.917333-357.696 92.906667-92.928 238.741333-100.672 340.48-23.253333l3.946667 3.093333 3.946667-3.072c101.76-77.44 247.573333-69.696 340.48 23.232z m-120.448 300.864a32 32 0 0 1 31.850667 28.906667l0.149333 3.093333v63.978667h64a32 32 0 0 1 3.093333 63.872l-3.093333 0.149333-64-0.021333v64a32 32 0 0 1-63.850667 3.093333l-0.149333-3.072v-64.021333h-64a32 32 0 0 1-3.072-63.829333l3.072-0.149334 64-0.021333v-64a32 32 0 0 1 32-32z" p-id="1958"></path></svg>