<?xml version="1.0" standalone="no"?><!DOCTYPE svg PUBLIC "-//W3C//DTD SVG 1.1//EN" "http://www.w3.org/Graphics/SVG/1.1/DTD/svg11.dtd"><svg t="1623390845767" class="icon" viewBox="0 0 1024 1024" version="1.1" xmlns="http://www.w3.org/2000/svg" p-id="1362" xmlns:xlink="http://www.w3.org/1999/xlink" width="200" height="200"><defs><style type="text/css"></style></defs><path d="M622.89 78.06C383.23 16.81 139.3 161.45 78.05 401.11S161.44 884.7 401.11 946 884.7 862.56 946 622.89s-83.44-483.6-323.11-544.83zM705.6 543.9h-160v160a32 32 0 0 1-64 0v-160h-160a32 32 0 0 1 0-64h160v-160a32 32 0 0 1 64 0v160h160a32 32 0 0 1 0 64z" p-id="1363" fill="#51b3f6" data-spm-anchor-id="a313x.7781069.0.i3" class="selected"></path></svg>