<?xml version="1.0" standalone="no"?><!DOCTYPE svg PUBLIC "-//W3C//DTD SVG 1.1//EN" "http://www.w3.org/Graphics/SVG/1.1/DTD/svg11.dtd"><svg class="icon" width="64px" height="64.00px" viewBox="0 0 1024 1024" version="1.1" xmlns="http://www.w3.org/2000/svg"><path d="M507.2 958.1c210 0 380.3-38.6 380.3-86.2 0-19.5-28.6-37.5-76.8-52-1.3-0.4-3.3-0.9-6-1.5l-245.1 94-337.8-77.2c-1.7-13.1-3.3-19.5-4.6-19.1-56.3 15-90.3 34.5-90.3 55.8 0 47.6 170.3 86.2 380.3 86.2z" fill="#EBEBEB" /><path d="M369.1 271v-8.9c0-5.6 4.5-10.1 10.1-10.1s10.1 4.5 10.1 10.1v8.9h11.4c5.6 0 10.1 4.5 10.1 10.1s-4.5 10.1-10.1 10.1h-11.4v19c0 5.6-4.5 10.1-10.1 10.1s-10.1-4.5-10.1-10.1v-19h-15.9c-5.6 0-10.1-4.5-10.1-10.1s4.5-10.1 10.1-10.1h15.9zM637.8 397.8V394c0-2.8 2.3-5.1 5.1-5.1s5.1 2.3 5.1 5.1v3.8h11.4c2.8 0 5.1 2.3 5.1 5.1s-2.3 5.1-5.1 5.1H648v13.9c0 2.8-2.3 5.1-5.1 5.1s-5.1-2.3-5.1-5.1V408H627c-2.8 0-5.1-2.3-5.1-5.1s2.3-5.1 5.1-5.1h10.8zM563 217.8c-5.6 0-10.1-4.5-10.1-10.1s4.5-10.1 10.1-10.1 10.1 4.5 10.1 10.1c0 5.5-4.5 10.1-10.1 10.1z m60.8 0c-5.6 0-10.1-4.5-10.1-10.1s4.5-10.1 10.1-10.1 10.2 4.4 10.2 10-4.6 10.2-10.2 10.2z m60.9 0c-5.6 0-10.1-4.5-10.1-10.1s4.5-10.1 10.1-10.1 10.1 4.5 10.1 10.1c0 5.5-4.5 10.1-10.1 10.1z m-213-11.7c0-77.7 65.2-140.5 145.4-140.5s145.4 62.8 145.4 140.5-65.2 140.5-145.4 140.5c-18.3 0-36.1-3.3-52.8-9.6-0.4 0.1-1 0.3-1.6 0.5-1.2 0.4-8.7 3-11.3 3.8-9.5 3-17.7 4.9-26 5.3-16.2 0.9-37-5-45.8-10.3-8.5-5.2-6.1-14.6 0.2-18.5 1.6-1 3.3-1.7 6-2.6 0.4-0.1 10.4-3.2 13.5-4.4 1.2-0.4 2.3-0.8 3.3-1.3 3.8-1.5 7.5-3.3 10.6-5-26.3-26-41.5-61-41.5-98.4z m52.6 120.2c6.3-0.4 12.9-1.8 20.9-4.4 2.2-0.7 9.8-3.3 11.3-3.8 6-1.9 8.9-2.4 13-0.8 14.9 5.9 31 8.9 47.4 8.9 69.2 0 125.1-53.9 125.1-120.2S686.2 85.9 617.1 85.9 492 139.8 492 206.1c0 34.9 15.6 67.4 42.3 90.1 5.8 4.9 5 11.6 1.2 16.5-1.6 2.1-3.9 4.1-6.8 6-3.5 2.4-8.2 5-13.2 7.3 3.1 0.3 6.1 0.5 8.8 0.3z" fill="#BFBFBF" /><path d="M279 380.1m-10.1 0a10.1 10.1 0 1 0 20.2 0 10.1 10.1 0 1 0-20.2 0Z" fill="#BFBFBF" /><path d="M568.1 466.3m-15.2 0a15.2 15.2 0 1 0 30.4 0 15.2 15.2 0 1 0-30.4 0Z" fill="#D9D9D9" /><path d="M567.9 551.2l-5 347.3 243.5-82.3 6.5-209.9z" fill="#F2F2F2" /><path d="M639.1 663.6l-75.2-139.5-82 139.5-253.6-43v206.2l333.4 69.8 234.5-78.1V614.2l-157.1 49.4z m-1.3 12.3l178.7-64v221.2L563 917.5l-355-74.2v-224l265.3 36.8L563 515.6l74.8 160.3z" fill="#BFBFBF" /><path d="M562.9 537.5v359.1l243.5-76.5-3.6-206.9-167.2 46.2z" fill="#EBEBEB" /><path d="M567.9 520c0 3.4 23.7 51.9 71.1 145.5l244-76.9-69.8-127.4C649.7 497 567.9 516.6 567.9 520z" fill="#EBEBEB" /><path d="M816.5 450.4v20.4L563 523.4l-355-37.5v-24.5l289.4-48.2 319.1 37.2z m-318.3-16.7l-227.9 35.8L565.5 512l198-49.1-265.3-29.2z" fill="#BFBFBF" /><path d="M547.9 511.7l268.3-61.2L898.9 597l-263.6 82-87.4-167.3z m97.5 142.9l223.4-69.5L806 473.6l-227.9 52 67.3 129z" fill="#BFBFBF" /><path d="M567.9 508.3l-361.1-46.7-65.1 154.8L484 675.9l83.9-167.6z m-27.1 12.1l-68.1 132.9-302.5-52.6 49.3-117.3 321.3 37z" fill="#BFBFBF" /><path d="M547.9 515.6h20.2v393.5h-20.2z" fill="#BFBFBF" /></svg>