<?xml version="1.0" standalone="no"?><!DOCTYPE svg PUBLIC "-//W3C//DTD SVG 1.1//EN" "http://www.w3.org/Graphics/SVG/1.1/DTD/svg11.dtd"><svg t="1627540213069" class="icon" viewBox="0 0 1024 1024" version="1.1" xmlns="http://www.w3.org/2000/svg" p-id="1414" xmlns:xlink="http://www.w3.org/1999/xlink" width="200" height="200"><defs><style type="text/css">@font-face { font-family: feedback-iconfont; src: url("//at.alicdn.com/t/font_1031158_1uhr8ri0pk5.eot?#iefix") format("embedded-opentype"), url("//at.alicdn.com/t/font_1031158_1uhr8ri0pk5.woff2") format("woff2"), url("//at.alicdn.com/t/font_1031158_1uhr8ri0pk5.woff") format("woff"), url("//at.alicdn.com/t/font_1031158_1uhr8ri0pk5.ttf") format("truetype"), url("//at.alicdn.com/t/font_1031158_1uhr8ri0pk5.svg#iconfont") format("svg"); }
</style></defs><path d="M512 860.16c-202.752 0-368.64-165.888-368.64-368.64S309.248 122.88 512 122.88s368.64 165.888 368.64 368.64-165.888 368.64-368.64 368.64z m88.064-559.104l-186.368 122.88c-6.144 4.096-8.192 10.24-8.192 16.384l-14.336 223.232c0 12.288 8.192 20.48 18.432 22.528 4.096 0 8.192 0 12.288-4.096l186.368-122.88c6.144-4.096 8.192-10.24 8.192-16.384l14.336-223.232c0-12.288-8.192-20.48-18.432-22.528-4.096 0-8.192 2.048-12.288 4.096z" fill="#51b3f6" p-id="1415"></path></svg>