<?xml version="1.0" standalone="no"?><!DOCTYPE svg PUBLIC "-//W3C//DTD SVG 1.1//EN" "http://www.w3.org/Graphics/SVG/1.1/DTD/svg11.dtd"><svg t="1621927151706" class="icon" viewBox="0 0 1024 1024" version="1.1" xmlns="http://www.w3.org/2000/svg" p-id="15488" xmlns:xlink="http://www.w3.org/1999/xlink" width="200" height="200"><defs><style type="text/css"></style></defs><path d="M512 599.900583c-165.406093 0-299.968593-134.562499-299.968593-299.944191S346.593907 0 512 0s299.956392 134.562499 299.956392 299.956392S677.393892 599.900583 512 599.900583z m0-553.256968c-139.686831 0-253.324977 113.638147-253.324977 253.312777s113.638147 253.300575 253.324977 253.300575 253.312776-113.638147 253.312776-253.300575S651.67463 46.643615 512 46.643615z" p-id="15489"></path><path d="M512 463.178544a106.537287 106.537287 0 0 1-90.17603-49.413195l19.64327-12.566812a83.660809 83.660809 0 0 0 144.103516-5.148733l20.509526 11.114919a106.939913 106.939913 0 0 1-94.080282 56.013821zM987.95277 1024H36.04723l1.598304-24.828605C53.67737 749.982485 262.03024 554.782066 512 554.782066s458.347031 195.21262 474.366667 444.438132zM86.521894 977.295381h850.956212c-26.097487-212.68415-208.389472-375.906302-425.478106-375.906302S112.655983 764.586829 86.521894 977.295381z" p-id="15490"></path></svg>